<?xml version="1.0" encoding="utf-8"?>
<!-- Generator: Adobe Illustrator 22.1.0, SVG Export Plug-In . SVG Version: 6.00 Build 0)  -->
<svg version="1.1" id="Layer_1" xmlns="http://www.w3.org/2000/svg" xmlns:xlink="http://www.w3.org/1999/xlink" x="0px" y="0px"
	 viewBox="0 0 425.3 279" style="enable-background:new 0 0 425.3 279;" xml:space="preserve">
<style type="text/css">
	.st0{fill:#FFFFFF;}
	
		.st1{clip-path:url(#SVGID_2_);fill:#FFFFFF;stroke:#FFFFFF;stroke-width:1.07;stroke-linecap:round;stroke-linejoin:round;stroke-miterlimit:10;}
	.st2{clip-path:url(#SVGID_4_);fill:#FFFFFF;}
	.st3{clip-path:url(#SVGID_6_);fill:#69B41F;}
	.st4{clip-path:url(#SVGID_8_);fill:#B5E61D;}
	.st5{clip-path:url(#SVGID_10_);fill:#DEA82C;}
	.st6{clip-path:url(#SVGID_12_);fill:#E9621A;}
	.st7{clip-path:url(#SVGID_14_);fill:#E92213;}
	.st8{clip-path:url(#SVGID_16_);fill:#333333;}
	.st9{clip-path:url(#SVGID_18_);}
	.st10{font-family:'Arial-BoldMT';}
	.st11{font-size:34px;}
	.st12{clip-path:url(#SVGID_20_);}
	.st13{clip-path:url(#SVGID_22_);}
	.st14{clip-path:url(#SVGID_24_);}
	.st15{font-size:34.928px;}
	.st16{clip-path:url(#SVGID_26_);}
	.st17{clip-path:url(#SVGID_28_);}
	.st18{clip-path:url(#SVGID_30_);}
	.st19{font-size:41.0918px;}
</style>
<rect y="0" class="st0" width="425.3" height="279"/>
<g>
	<g>
		<defs>
			<rect id="SVGID_1_" y="31.9" width="425.3" height="215.2"/>
		</defs>
		<clipPath id="SVGID_2_">
			<use xlink:href="#SVGID_1_"  style="overflow:visible;"/>
		</clipPath>
		<rect y="31.9" class="st1" width="425.3" height="215.2"/>
	</g>
</g>
<g>
	<g>
		<defs>
			<rect id="SVGID_3_" x="8.2" y="21.9" width="411.5" height="217"/>
		</defs>
		<clipPath id="SVGID_4_">
			<use xlink:href="#SVGID_3_"  style="overflow:visible;"/>
		</clipPath>
		<rect x="8.2" y="21.9" class="st2" width="411.5" height="217"/>
	</g>
</g>
<g>
	<g>
		<defs>
			<rect id="SVGID_5_" x="8.2" y="37.4" width="411.5" height="201.5"/>
		</defs>
		<clipPath id="SVGID_6_">
			<use xlink:href="#SVGID_5_"  style="overflow:visible;"/>
		</clipPath>
		<polyline class="st3" points="120.5,224.4 120.5,223.8 120.5,223.3 120.5,222.7 120.5,222.1 120.5,221.5 120.5,220.9 120.6,220.3 
			120.6,219.7 120.6,219.1 120.7,218.5 120.7,217.9 120.7,217.3 120.8,216.7 120.8,216.1 120.9,215.5 120.9,215 121,214.4 
			121.1,213.8 121.1,213.2 121.2,212.6 121.3,212 121.4,211.4 121.5,210.8 121.5,210.2 121.6,209.7 121.7,209.1 121.8,208.5 
			121.9,207.9 122,207.3 122.2,206.7 122.3,206.2 122.4,205.6 122.5,205 122.6,204.4 122.8,203.8 122.9,203.3 123,202.7 
			123.2,202.1 123.3,201.5 123.5,200.9 123.6,200.4 123.8,199.8 123.9,199.2 124.1,198.7 124.3,198.1 124.4,197.5 124.6,196.9 
			124.8,196.4 124.9,195.8 125.1,195.3 125.3,194.7 125.5,194.1 125.7,193.6 125.9,193 126.1,192.4 126.3,191.9 126.5,191.3 
			126.7,190.8 126.9,190.2 127.2,189.7 127.4,189.1 127.6,188.6 127.8,188 128.1,187.5 128.3,186.9 128.6,186.4 128.8,185.9 
			129,185.3 129.3,184.8 129.5,184.2 129.8,183.7 130.1,183.2 130.3,182.6 130.6,182.1 130.9,181.6 131.1,181.1 131.4,180.5 
			131.7,180 132,179.5 132.3,179 132.6,178.4 132.8,177.9 133.1,177.4 133.4,176.9 133.7,176.4 134.1,175.9 134.4,175.4 
			134.7,174.9 135,174.4 135.3,173.9 135.6,173.4 136,172.9 136.3,172.4 136.6,171.9 136.9,171.4 137.3,170.9 137.6,170.4 
			138,169.9 138.3,169.5 77.8,125.5 77.2,126.3 76.5,127.2 75.9,128.1 75.3,129 74.7,129.8 74.1,130.7 73.5,131.6 72.9,132.5 
			72.4,133.4 71.8,134.3 71.2,135.2 70.7,136.1 70.1,137 69.5,138 69,138.9 68.5,139.8 67.9,140.7 67.4,141.6 66.9,142.6 
			66.4,143.5 65.8,144.5 65.3,145.4 64.8,146.3 64.3,147.3 63.9,148.2 63.4,149.2 62.9,150.2 62.4,151.1 62,152.1 61.5,153 
			61.1,154 60.6,155 60.2,156 59.8,156.9 59.3,157.9 58.9,158.9 58.5,159.9 58.1,160.9 57.7,161.9 57.3,162.9 56.9,163.9 
			56.5,164.9 56.2,165.9 55.8,166.9 55.4,167.9 55.1,168.9 54.7,169.9 54.4,170.9 54,171.9 53.7,172.9 53.4,173.9 53.1,175 
			52.8,176 52.5,177 52.2,178 51.9,179.1 51.6,180.1 51.3,181.1 51,182.2 50.8,183.2 50.5,184.2 50.3,185.3 50,186.3 49.8,187.3 
			49.5,188.4 49.3,189.4 49.1,190.5 48.9,191.5 48.7,192.6 48.5,193.6 48.3,194.7 48.1,195.7 47.9,196.8 47.8,197.8 47.6,198.9 
			47.4,199.9 47.3,201 47.1,202.1 47,203.1 46.9,204.2 46.7,205.2 46.6,206.3 46.5,207.4 46.4,208.4 46.3,209.5 46.2,210.6 
			46.1,211.6 46,212.7 46,213.8 45.9,214.8 45.8,215.9 45.8,217 45.8,218 45.7,219.1 45.7,220.2 45.7,221.2 45.7,222.3 45.6,223.4 
			45.6,224.4 		"/>
	</g>
</g>
<g>
	<g>
		<defs>
			<rect id="SVGID_7_" x="8.2" y="37.4" width="411.5" height="201.5"/>
		</defs>
		<clipPath id="SVGID_8_">
			<use xlink:href="#SVGID_7_"  style="overflow:visible;"/>
		</clipPath>
		<polyline class="st4" points="138.3,169.5 138.7,169 139,168.5 139.4,168 139.7,167.6 140.1,167.1 140.5,166.6 140.8,166.2 
			141.2,165.7 141.6,165.2 142,164.8 142.3,164.3 142.7,163.9 143.1,163.4 143.5,163 143.9,162.5 144.3,162.1 144.7,161.6 
			145.1,161.2 145.5,160.8 145.9,160.3 146.3,159.9 146.7,159.5 147.1,159 147.5,158.6 148,158.2 148.4,157.8 148.8,157.4 
			149.2,156.9 149.7,156.5 150.1,156.1 150.5,155.7 151,155.3 151.4,154.9 151.9,154.5 152.3,154.1 152.7,153.7 153.2,153.4 
			153.6,153 154.1,152.6 154.6,152.2 155,151.8 155.5,151.5 155.9,151.1 156.4,150.7 156.9,150.4 157.4,150 157.8,149.6 
			158.3,149.3 158.8,148.9 159.3,148.6 159.7,148.2 160.2,147.9 160.7,147.6 161.2,147.2 161.7,146.9 162.2,146.6 162.7,146.2 
			163.2,145.9 163.7,145.6 164.2,145.3 164.7,145 165.2,144.6 165.7,144.3 166.2,144 166.7,143.7 167.2,143.4 167.7,143.1 
			168.3,142.8 168.8,142.6 169.3,142.3 169.8,142 170.4,141.7 170.9,141.4 171.4,141.2 171.9,140.9 172.5,140.6 173,140.4 
			173.5,140.1 174.1,139.9 174.6,139.6 175.1,139.4 175.7,139.1 176.2,138.9 176.8,138.6 177.3,138.4 177.9,138.2 178.4,137.9 
			179,137.7 179.5,137.5 180.1,137.3 180.6,137.1 181.2,136.9 181.7,136.6 182.3,136.4 182.8,136.2 183.4,136 184,135.9 
			184.5,135.7 185.1,135.5 162,64.3 160.9,64.6 159.9,65 158.9,65.3 157.9,65.7 156.9,66 155.9,66.4 154.9,66.8 153.9,67.2 
			152.9,67.5 151.9,67.9 150.9,68.3 149.9,68.7 148.9,69.1 148,69.6 147,70 146,70.4 145,70.8 144.1,71.3 143.1,71.7 142.1,72.2 
			141.1,72.6 140.2,73.1 139.2,73.6 138.3,74.1 137.3,74.5 136.4,75 135.4,75.5 134.5,76 133.5,76.5 132.6,77.1 131.7,77.6 
			130.7,78.1 129.8,78.6 128.9,79.2 128,79.7 127.1,80.3 126.1,80.8 125.2,81.4 124.3,81.9 123.4,82.5 122.5,83.1 121.6,83.7 
			120.7,84.3 119.8,84.9 119,85.5 118.1,86.1 117.2,86.7 116.3,87.3 115.5,87.9 114.6,88.5 113.7,89.2 112.9,89.8 112,90.5 
			111.2,91.1 110.3,91.8 109.5,92.4 108.7,93.1 107.8,93.8 107,94.4 106.2,95.1 105.4,95.8 104.6,96.5 103.7,97.2 102.9,97.9 
			102.1,98.6 101.3,99.3 100.6,100 99.8,100.8 99,101.5 98.2,102.2 97.4,103 96.7,103.7 95.9,104.4 95.1,105.2 94.4,106 93.6,106.7 
			92.9,107.5 92.2,108.3 91.4,109 90.7,109.8 90,110.6 89.2,111.4 88.5,112.2 87.8,113 87.1,113.8 86.4,114.6 85.7,115.4 85,116.2 
			84.3,117 83.7,117.9 83,118.7 82.3,119.5 81.7,120.4 81,121.2 80.3,122.1 79.7,122.9 79.1,123.8 78.4,124.6 77.8,125.5 		"/>
	</g>
</g>
<g>
	<g>
		<defs>
			<rect id="SVGID_9_" x="8.2" y="37.4" width="411.5" height="201.5"/>
		</defs>
		<clipPath id="SVGID_10_">
			<use xlink:href="#SVGID_9_"  style="overflow:visible;"/>
		</clipPath>
		<polyline class="st5" points="185.1,135.5 185.7,135.3 186.2,135.1 186.8,134.9 187.4,134.8 187.9,134.6 188.5,134.4 189.1,134.3 
			189.6,134.1 190.2,134 190.8,133.8 191.4,133.7 191.9,133.5 192.5,133.4 193.1,133.3 193.7,133.1 194.3,133 194.8,132.9 
			195.4,132.8 196,132.6 196.6,132.5 197.2,132.4 197.8,132.3 198.3,132.2 198.9,132.1 199.5,132 200.1,131.9 200.7,131.9 
			201.3,131.8 201.9,131.7 202.4,131.6 203,131.5 203.6,131.5 204.2,131.4 204.8,131.4 205.4,131.3 206,131.2 206.6,131.2 
			207.2,131.2 207.8,131.1 208.4,131.1 208.9,131 209.5,131 210.1,131 210.7,131 211.3,130.9 211.9,130.9 212.5,130.9 213.1,130.9 
			213.7,130.9 214.3,130.9 214.9,130.9 215.5,130.9 216.1,130.9 216.7,130.9 217.3,131 217.9,131 218.4,131 219,131 219.6,131.1 
			220.2,131.1 220.8,131.2 221.4,131.2 222,131.2 222.6,131.3 223.2,131.4 223.8,131.4 224.4,131.5 224.9,131.5 225.5,131.6 
			226.1,131.7 226.7,131.8 227.3,131.9 227.9,131.9 228.5,132 229.1,132.1 229.6,132.2 230.2,132.3 230.8,132.4 231.4,132.5 
			232,132.6 232.6,132.8 233.1,132.9 233.7,133 234.3,133.1 234.9,133.3 235.5,133.4 236.1,133.5 236.6,133.7 237.2,133.8 
			237.8,134 238.4,134.1 238.9,134.3 239.5,134.4 240.1,134.6 240.6,134.8 241.2,134.9 241.8,135.1 242.3,135.3 242.9,135.5 
			266,64.3 265,64 264,63.7 263,63.4 261.9,63 260.9,62.7 259.9,62.5 258.9,62.2 257.8,61.9 256.8,61.6 255.8,61.3 254.7,61.1 
			253.7,60.8 252.6,60.6 251.6,60.3 250.6,60.1 249.5,59.9 248.5,59.6 247.4,59.4 246.4,59.2 245.3,59 244.3,58.8 243.2,58.6 
			242.2,58.5 241.1,58.3 240.1,58.1 239,57.9 238,57.8 236.9,57.6 235.8,57.5 234.8,57.4 233.7,57.2 232.7,57.1 231.6,57 
			230.5,56.9 229.5,56.8 228.4,56.7 227.3,56.6 226.3,56.5 225.2,56.4 224.1,56.4 223.1,56.3 222,56.3 220.9,56.2 219.9,56.2 
			218.8,56.1 217.7,56.1 216.7,56.1 215.6,56.1 214.5,56.1 213.5,56.1 212.4,56.1 211.3,56.1 210.3,56.1 209.2,56.1 208.1,56.2 
			207.1,56.2 206,56.3 204.9,56.3 203.9,56.4 202.8,56.4 201.7,56.5 200.6,56.6 199.6,56.7 198.5,56.8 197.5,56.9 196.4,57 
			195.3,57.1 194.3,57.2 193.2,57.4 192.1,57.5 191.1,57.6 190,57.8 189,57.9 187.9,58.1 186.9,58.3 185.8,58.5 184.8,58.6 
			183.7,58.8 182.7,59 181.6,59.2 180.6,59.4 179.5,59.6 178.5,59.9 177.4,60.1 176.4,60.3 175.3,60.6 174.3,60.8 173.3,61.1 
			172.2,61.3 171.2,61.6 170.2,61.9 169.1,62.2 168.1,62.5 167.1,62.7 166.1,63 165,63.4 164,63.7 163,64 162,64.3 		"/>
	</g>
</g>
<g>
	<g>
		<defs>
			<rect id="SVGID_11_" x="8.2" y="37.4" width="411.5" height="201.5"/>
		</defs>
		<clipPath id="SVGID_12_">
			<use xlink:href="#SVGID_11_"  style="overflow:visible;"/>
		</clipPath>
		<polyline class="st6" points="242.9,135.5 243.5,135.7 244,135.9 244.6,136 245.1,136.2 245.7,136.4 246.3,136.6 246.8,136.9 
			247.4,137.1 247.9,137.3 248.5,137.5 249,137.7 249.6,137.9 250.1,138.2 250.7,138.4 251.2,138.6 251.8,138.9 252.3,139.1 
			252.9,139.4 253.4,139.6 253.9,139.9 254.5,140.1 255,140.4 255.5,140.6 256.1,140.9 256.6,141.2 257.1,141.4 257.6,141.7 
			258.2,142 258.7,142.3 259.2,142.6 259.7,142.8 260.3,143.1 260.8,143.4 261.3,143.7 261.8,144 262.3,144.3 262.8,144.6 
			263.3,145 263.8,145.3 264.3,145.6 264.8,145.9 265.3,146.2 265.8,146.6 266.3,146.9 266.8,147.2 267.3,147.6 267.8,147.9 
			268.3,148.2 268.7,148.6 269.2,148.9 269.7,149.3 270.2,149.6 270.6,150 271.1,150.4 271.6,150.7 272,151.1 272.5,151.5 
			273,151.8 273.4,152.2 273.9,152.6 274.3,153 274.8,153.4 275.3,153.7 275.7,154.1 276.1,154.5 276.6,154.9 277,155.3 
			277.5,155.7 277.9,156.1 278.3,156.5 278.8,156.9 279.2,157.4 279.6,157.8 280,158.2 280.5,158.6 280.9,159 281.3,159.5 
			281.7,159.9 282.1,160.3 282.5,160.8 282.9,161.2 283.3,161.6 283.7,162.1 284.1,162.5 284.5,163 284.9,163.4 285.3,163.9 
			285.6,164.3 286,164.8 286.4,165.2 286.8,165.7 287.1,166.2 287.5,166.6 287.9,167.1 288.3,167.6 288.6,168 289,168.5 289.3,169 
			289.7,169.5 350.2,125.5 349.6,124.6 348.9,123.8 348.3,122.9 347.6,122.1 347,121.2 346.3,120.4 345.7,119.5 345,118.7 
			344.3,117.9 343.6,117 343,116.2 342.3,115.4 341.6,114.6 340.9,113.8 340.2,113 339.5,112.2 338.8,111.4 338,110.6 337.3,109.8 
			336.6,109 335.8,108.3 335.1,107.5 334.4,106.7 333.6,106 332.9,105.2 332.1,104.4 331.3,103.7 330.6,103 329.8,102.2 329,101.5 
			328.2,100.8 327.4,100 326.6,99.3 325.9,98.6 325,97.9 324.3,97.2 323.4,96.5 322.6,95.8 321.8,95.1 321,94.4 320.2,93.8 
			319.3,93.1 318.5,92.4 317.6,91.8 316.8,91.1 316,90.5 315.1,89.8 314.3,89.2 313.4,88.5 312.5,87.9 311.6,87.3 310.8,86.7 
			309.9,86.1 309,85.5 308.1,84.9 307.3,84.3 306.4,83.7 305.5,83.1 304.6,82.5 303.7,81.9 302.8,81.4 301.9,80.8 300.9,80.3 
			300,79.7 299.1,79.2 298.2,78.6 297.3,78.1 296.3,77.6 295.4,77.1 294.5,76.5 293.5,76 292.6,75.5 291.6,75 290.7,74.5 
			289.7,74.1 288.8,73.6 287.8,73.1 286.8,72.6 285.9,72.2 284.9,71.7 283.9,71.3 283,70.8 282,70.4 281,70 280,69.6 279,69.1 
			278,68.7 277.1,68.3 276.1,67.9 275.1,67.5 274.1,67.2 273.1,66.8 272.1,66.4 271.1,66 270.1,65.7 269.1,65.3 268,65 267,64.6 
			266,64.3 		"/>
	</g>
</g>
<g>
	<g>
		<defs>
			<rect id="SVGID_13_" x="8.2" y="37.4" width="411.5" height="201.5"/>
		</defs>
		<clipPath id="SVGID_14_">
			<use xlink:href="#SVGID_13_"  style="overflow:visible;"/>
		</clipPath>
		<polyline class="st7" points="289.7,169.5 290,169.9 290.4,170.4 290.7,170.9 291,171.4 291.4,171.9 291.7,172.4 292,172.9 
			292.4,173.4 292.7,173.9 293,174.4 293.3,174.9 293.6,175.4 293.9,175.9 294.3,176.4 294.5,176.9 294.9,177.4 295.1,177.9 
			295.4,178.4 295.7,179 296,179.5 296.3,180 296.6,180.5 296.9,181.1 297.1,181.6 297.4,182.1 297.7,182.6 297.9,183.2 
			298.2,183.7 298.5,184.2 298.7,184.8 299,185.3 299.2,185.9 299.4,186.4 299.7,186.9 299.9,187.5 300.1,188 300.4,188.6 
			300.6,189.1 300.8,189.7 301,190.2 301.3,190.8 301.5,191.3 301.7,191.9 301.9,192.4 302.1,193 302.3,193.6 302.5,194.1 
			302.7,194.7 302.9,195.3 303,195.8 303.2,196.4 303.4,196.9 303.6,197.5 303.7,198.1 303.9,198.7 304.1,199.2 304.2,199.8 
			304.4,200.4 304.5,200.9 304.7,201.5 304.8,202.1 305,202.7 305.1,203.3 305.2,203.8 305.4,204.4 305.5,205 305.6,205.6 
			305.7,206.2 305.8,206.7 306,207.3 306.1,207.9 306.2,208.5 306.3,209.1 306.4,209.7 306.5,210.2 306.5,210.8 306.6,211.4 
			306.7,212 306.8,212.6 306.9,213.2 306.9,213.8 307,214.4 307,215 307.1,215.5 307.2,216.1 307.2,216.7 307.3,217.3 307.3,217.9 
			307.3,218.5 307.4,219.1 307.4,219.7 307.4,220.3 307.5,220.9 307.5,221.5 307.5,222.1 307.5,222.7 307.5,223.3 307.5,223.8 
			307.5,224.4 382.4,224.4 382.4,223.4 382.3,222.3 382.3,221.2 382.3,220.2 382.3,219.1 382.2,218 382.2,217 382.1,215.9 
			382.1,214.8 382,213.8 382,212.7 381.9,211.6 381.8,210.6 381.7,209.5 381.6,208.4 381.5,207.4 381.4,206.3 381.3,205.2 
			381.1,204.2 381,203.1 380.9,202.1 380.7,201 380.6,199.9 380.4,198.9 380.2,197.8 380.1,196.8 379.9,195.7 379.7,194.7 
			379.5,193.6 379.3,192.6 379.1,191.5 378.9,190.5 378.7,189.4 378.5,188.4 378.2,187.3 378,186.3 377.7,185.3 377.5,184.2 
			377.2,183.2 377,182.2 376.7,181.1 376.4,180.1 376.1,179.1 375.8,178 375.5,177 375.2,176 374.9,175 374.6,173.9 374.3,172.9 
			374,171.9 373.6,170.9 373.3,169.9 372.9,168.9 372.6,167.9 372.2,166.9 371.8,165.9 371.5,164.9 371.1,163.9 370.7,162.9 
			370.3,161.9 369.9,160.9 369.5,159.9 369.1,158.9 368.7,157.9 368.2,156.9 367.8,156 367.4,155 366.9,154 366.5,153 366,152.1 
			365.5,151.1 365.1,150.2 364.6,149.2 364.1,148.2 363.6,147.3 363.1,146.3 362.6,145.4 362.1,144.5 361.6,143.5 361.1,142.6 
			360.6,141.6 360.1,140.7 359.5,139.8 359,138.9 358.5,138 357.9,137 357.3,136.1 356.8,135.2 356.2,134.3 355.6,133.4 355,132.5 
			354.5,131.6 353.9,130.7 353.3,129.8 352.7,129 352.1,128.1 351.5,127.2 350.8,126.3 350.2,125.5 		"/>
	</g>
</g>
<g>
	<g>
		<defs>
			<rect id="SVGID_15_" x="8.2" y="37.4" width="411.5" height="201.5"/>
		</defs>
		<clipPath id="SVGID_16_">
			<use xlink:href="#SVGID_15_"  style="overflow:visible;"/>
		</clipPath>
		<polyline class="st8" points="195.3,225 195.3,225 195.3,225 195.3,225 195.3,225 195.3,225 195.3,225 195.3,224.9 195.3,224.9 
			195.3,224.9 195.3,224.9 195.3,224.9 195.3,224.9 195.3,224.9 195.3,224.9 195.3,224.8 195.3,224.8 195.3,224.8 195.3,224.8 
			195.3,224.8 195.3,224.8 195.3,224.8 195.3,224.8 195.3,224.8 195.3,224.7 195.3,224.7 195.3,224.7 195.3,224.7 195.3,224.7 
			195.3,224.7 195.3,224.7 195.3,224.7 195.3,224.6 195.3,224.6 195.3,224.6 195.3,224.6 195.3,224.6 195.3,224.6 195.3,224.6 
			195.3,224.6 195.3,224.6 195.3,224.5 195.3,224.5 195.3,224.5 195.3,224.5 195.3,224.5 195.3,224.5 195.3,224.5 195.3,224.5 
			195.3,224.4 195.3,224.4 195.3,224.4 195.3,224.4 195.3,224.4 195.3,224.4 195.3,224.4 195.3,224.4 195.3,224.3 195.3,224.3 
			195.3,224.3 195.3,224.3 195.3,224.3 195.3,224.3 195.3,224.3 195.3,224.3 195.3,224.3 195.3,224.2 195.3,224.2 195.3,224.2 
			195.3,224.2 195.3,224.2 195.3,224.2 195.3,224.2 195.3,224.2 195.3,224.1 195.3,224.1 195.3,224.1 195.3,224.1 195.3,224.1 
			195.3,224.1 195.3,224.1 195.3,224.1 195.3,224.1 195.3,224 195.3,224 195.3,224 195.3,224 195.3,224 195.3,224 195.3,224 
			195.3,224 195.3,223.9 195.3,223.9 195.3,223.9 195.3,223.9 195.3,223.9 195.3,223.9 195.3,223.9 195.3,223.9 195.3,223.8 
			45.7,219.1 45.7,219.3 45.7,219.4 45.7,219.5 45.7,219.6 45.7,219.7 45.7,219.8 45.7,219.9 45.7,220 45.7,220.1 45.7,220.2 
			45.7,220.3 45.7,220.4 45.7,220.5 45.7,220.6 45.7,220.8 45.7,220.9 45.7,221 45.7,221.1 45.7,221.2 45.7,221.3 45.7,221.4 
			45.7,221.5 45.7,221.6 45.7,221.7 45.7,221.8 45.7,221.9 45.7,222 45.7,222.1 45.7,222.2 45.7,222.4 45.6,222.5 45.6,222.6 
			45.6,222.7 45.6,222.8 45.6,222.9 45.6,223 45.6,223.1 45.6,223.2 45.6,223.3 45.6,223.4 45.6,223.5 45.6,223.6 45.6,223.7 
			45.6,223.8 45.6,224 45.6,224.1 45.6,224.2 45.6,224.3 45.6,224.4 45.6,224.5 45.6,224.6 45.6,224.7 45.6,224.8 45.6,224.9 
			45.6,225 45.6,225.1 45.6,225.2 45.6,225.3 45.6,225.5 45.6,225.6 45.6,225.7 45.6,225.8 45.6,225.9 45.6,226 45.6,226.1 
			45.6,226.2 45.6,226.3 45.6,226.4 45.7,226.5 45.7,226.6 45.7,226.7 45.7,226.8 45.7,226.9 45.7,227.1 45.7,227.2 45.7,227.3 
			45.7,227.4 45.7,227.5 45.7,227.6 45.7,227.7 45.7,227.8 45.7,227.9 45.7,228 45.7,228.1 45.7,228.2 45.7,228.3 45.7,228.4 
			45.7,228.6 45.7,228.7 45.7,228.8 45.7,228.9 45.7,229 45.7,229.1 45.7,229.2 45.7,229.3 45.7,229.4 45.7,229.5 45.7,229.6 
			45.7,229.7 		"/>
	</g>
</g>
<g>
	<g>
		<defs>
			<rect id="SVGID_17_" x="8.2" y="37.4" width="411.5" height="201.5"/>
		</defs>
		<clipPath id="SVGID_18_">
			<use xlink:href="#SVGID_17_"  style="overflow:visible;"/>
		</clipPath>
		<g class="st9">
			<text transform="matrix(1 0 0 1 19.14 224.44)" class="st10 st11">0</text>
		</g>
	</g>
</g>
<g>
	<g>
		<defs>
			<rect id="SVGID_19_" x="6.9" y="37.4" width="411.5" height="201.5"/>
		</defs>
		<clipPath id="SVGID_20_">
			<use xlink:href="#SVGID_19_"  style="overflow:visible;"/>
		</clipPath>
		<g class="st12">
			<text transform="matrix(1 0 0 1 53.57 114.49)" class="st10 st11">1</text>
		</g>
	</g>
</g>
<g>
	<g>
		<defs>
			<rect id="SVGID_21_" x="8.2" y="27.9" width="411.5" height="211"/>
		</defs>
		<clipPath id="SVGID_22_">
			<use xlink:href="#SVGID_21_"  style="overflow:visible;"/>
		</clipPath>
		<g class="st13">
			<text transform="matrix(0.9549 0 0 1 148.3999 56.017)" class="st10 st11">2</text>
		</g>
	</g>
</g>
<g>
	<g>
		<defs>
			<rect id="SVGID_23_" x="8.2" y="31.9" width="411.5" height="207"/>
		</defs>
		<clipPath id="SVGID_24_">
			<use xlink:href="#SVGID_23_"  style="overflow:visible;"/>
		</clipPath>
		<g class="st14">
			<text transform="matrix(0.9734 0 0 1 264.0195 56.5253)" class="st10 st15">3</text>
		</g>
	</g>
</g>
<g>
	<g>
		<defs>
			<rect id="SVGID_25_" x="8.2" y="37.4" width="411.5" height="201.5"/>
		</defs>
		<clipPath id="SVGID_26_">
			<use xlink:href="#SVGID_25_"  style="overflow:visible;"/>
		</clipPath>
		<g class="st16">
			<text transform="matrix(1 0 0 1 357.55 114.49)" class="st10 st11">4</text>
		</g>
	</g>
</g>
<g>
	<g>
		<defs>
			<rect id="SVGID_27_" x="8.2" y="31.9" width="411.5" height="207"/>
		</defs>
		<clipPath id="SVGID_28_">
			<use xlink:href="#SVGID_27_"  style="overflow:visible;"/>
		</clipPath>
		<g class="st17">
			<text transform="matrix(0.9734 0 0 1 393.2803 224.0453)" class="st10 st11">5</text>
		</g>
	</g>
</g>
<g>
	<g>
		<defs>
			<rect id="SVGID_29_" x="8.2" y="31.9" width="411.5" height="207"/>
		</defs>
		<clipPath id="SVGID_30_">
			<use xlink:href="#SVGID_29_"  style="overflow:visible;"/>
		</clipPath>
		<g class="st18">
			<text transform="matrix(0.9734 0 0 1 204.54 224.0453)" class="st10 st19">0</text>
		</g>
	</g>
</g>
</svg>
